<?xml version="1.0" encoding="utf-8"?>
<!-- Generator: Adobe Illustrator 16.0.3, SVG Export Plug-In . SVG Version: 6.00 Build 0)  -->
<!DOCTYPE svg PUBLIC "-//W3C//DTD SVG 1.1//EN" "http://www.w3.org/Graphics/SVG/1.1/DTD/svg11.dtd">
<svg version="1.1" id="Layer_1" xmlns="http://www.w3.org/2000/svg" xmlns:xlink="http://www.w3.org/1999/xlink" x="0px" y="0px"
	 width="200px" height="51.593px" viewBox="0 0 200 51.593" enable-background="new 0 0 200 51.593" xml:space="preserve">
<g>
	<path fill="#FEFEFF" d="M30.753,39.069H6.688c0.154,2.23,1.173,4.029,3.058,5.396c1.885,1.366,4.041,2.05,6.464,2.05
		c3.848,0,6.771-1.213,8.771-3.637l3.694,4.039c-3.309,3.426-7.618,5.137-12.927,5.137c-4.309,0-7.974-1.434-10.993-4.301
		c-3.021-2.863-4.531-6.711-4.531-11.541c0-4.828,1.538-8.665,4.616-11.513c3.077-2.846,6.704-4.27,10.878-4.27
		c4.175,0,7.723,1.261,10.647,3.779c2.923,2.521,4.386,5.994,4.386,10.417v4.444H30.753z M6.688,33.991H24.29
		c0-2.577-0.809-4.559-2.424-5.944c-1.616-1.386-3.607-2.077-5.973-2.077c-2.366,0-4.492,0.721-6.376,2.164
		C7.631,29.576,6.688,31.528,6.688,33.991z"/>
	<path fill="#42A5F5" d="M51.067,16.389c-2.001,0-3.635,0.404-4.906,1.212c-1.269,0.809-1.905,2.03-1.905,3.666
		s0.645,2.896,1.934,3.779c1.288,0.885,4.011,1.828,8.166,2.829c4.155,1,7.28,2.414,9.377,4.24c2.097,1.828,3.145,4.513,3.145,8.051
		c0,3.541-1.328,6.406-3.982,8.601c-2.655,2.19-6.156,3.289-10.502,3.289c-6.387,0-12.024-2.193-16.909-6.58l4.328-5.136
		c4.078,3.541,8.329,5.31,12.754,5.31c2.193,0,3.944-0.471,5.252-1.414c1.308-0.941,1.961-2.193,1.961-3.752
		c0-1.557-0.615-2.778-1.846-3.663c-1.232-0.884-3.924-1.827-8.08-2.827c-4.155-1-7.32-2.367-9.494-4.098
		c-2.173-1.732-3.26-4.463-3.26-8.195c0-3.731,1.365-6.607,4.097-8.627c2.731-2.02,6.117-3.029,10.157-3.029
		c2.578,0,5.145,0.424,7.705,1.269c2.557,0.847,4.761,2.04,6.608,3.577l-3.636,5.194c-1.193-1.077-2.819-1.961-4.876-2.654
		C55.096,16.735,53.067,16.389,51.067,16.389z M54.414,7.732h-6.002L41.372,0h5.597l4.444,3.232L55.857,0h5.597L54.414,7.732z"/>
	<path fill="#42A5F5" d="M99.311,51.593h-5.887v-4.1c-2.539,3.041-5.943,4.561-10.214,4.561c-3.193,0-5.837-0.904-7.935-2.713
		s-3.146-4.223-3.146-7.242c0-3.021,1.116-5.279,3.347-6.781c2.231-1.5,5.252-2.25,9.061-2.25h8.368v-1.154
		c0-4.078-2.27-6.117-6.81-6.117c-2.847,0-5.809,1.039-8.887,3.116l-2.886-4.039c3.731-2.962,7.963-4.444,12.695-4.444
		c3.617,0,6.569,0.915,8.858,2.741c2.289,1.827,3.434,4.704,3.434,8.627v19.795H99.311z M92.847,40.165v-2.598h-7.271
		c-4.657,0-6.983,1.464-6.983,4.388c0,1.5,0.577,2.646,1.731,3.433c1.154,0.789,2.76,1.185,4.818,1.185s3.857-0.578,5.396-1.732
		C92.077,43.685,92.847,42.128,92.847,40.165z"/>
	<path fill="#42A5F5" d="M114.773,51.593h-6.461V8.772h6.461V51.593z"/>
	<path fill="#42A5F5" d="M132.088,26.084v15.582c0,1.463,0.385,2.626,1.155,3.491c0.769,0.865,1.845,1.298,3.229,1.298
		c1.387,0,2.713-0.671,3.982-2.021l2.654,4.561c-2.271,2.039-4.781,3.059-7.531,3.059c-2.752,0-5.098-0.953-7.039-2.856
		c-1.943-1.904-2.915-4.474-2.915-7.704V26.084h-3.866V20.89h3.866v-9.637h6.463v9.637h8.08v5.194H132.088z"/>
	<path fill="#42A5F5" d="M176.813,39.069h-24.063c0.151,2.23,1.172,4.029,3.058,5.396c1.885,1.366,4.039,2.05,6.465,2.05
		c3.847,0,6.771-1.213,8.771-3.637l3.692,4.039c-3.309,3.426-7.615,5.137-12.926,5.137c-4.31,0-7.975-1.434-10.994-4.301
		c-3.02-2.863-4.529-6.711-4.529-11.541c0-4.828,1.539-8.665,4.617-11.513c3.078-2.846,6.703-4.27,10.879-4.27
		c4.173,0,7.724,1.261,10.646,3.779c2.925,2.521,4.388,5.994,4.388,10.417v4.444H176.813z M152.749,33.991h17.601
		c0-2.577-0.809-4.559-2.425-5.944c-1.614-1.386-3.604-2.077-5.973-2.077c-2.365,0-4.493,0.721-6.376,2.164
		C153.691,29.576,152.749,31.528,152.749,33.991z"/>
	<path fill="#42A5F5" d="M200.012,26.95c-3.193,0-5.599,1.04-7.214,3.117c-1.616,2.077-2.424,4.868-2.424,8.368v13.158h-6.463
		V20.891h6.463v6.174c1.04-1.923,2.453-3.5,4.243-4.731c1.785-1.23,3.682-1.866,5.682-1.904l0.061,6.521
		C200.243,26.95,200.128,26.95,200.012,26.95z"/>
</g>
</svg>
